HIERARCHY
ROOT Hips
{
    OFFSET   0.000000   0.000000   0.000000
    CHANNELS 6 Xposition Yposition Zposition Zrotation Xrotation Yrotation
    JOINT Chest
    {
        OFFSET   0.000000   8.007230   0.000000
        CHANNELS 3 Zrotation Xrotation Yrotation
        JOINT Chest2
        {
            OFFSET   0.000000  22.077100   0.000000
            CHANNELS 3 Zrotation Xrotation Yrotation
            JOINT Neck
            {
                OFFSET   0.000000  23.255100   0.000000
                CHANNELS 3 Zrotation Xrotation Yrotation
                JOINT Head
                {
                    OFFSET   0.000000  14.370100   1.956600
                    CHANNELS 3 Zrotation Xrotation Yrotation
                    End Site
                    {
                        OFFSET   0.000000  19.566000   0.000000
                    }
                }
            }
            JOINT LeftCollar
            {
                OFFSET   3.911900  19.017000  -0.467063
                CHANNELS 3 Zrotation Xrotation Yrotation
                JOINT LeftShoulder
                {
                    OFFSET  10.383700   0.000000   0.000000
                    CHANNELS 3 Zrotation Xrotation Yrotation
                    JOINT LeftElbow
                    {
                        OFFSET  26.662100   0.001193   0.000980
                        CHANNELS 3 Zrotation Xrotation Yrotation
                        JOINT LeftWrist
                        {
                            OFFSET  28.869000  -0.000059  -0.000082
                            CHANNELS 3 Zrotation Xrotation Yrotation
                            JOINT LeftFinger0
                            {
                                OFFSET   2.044650  -2.323450   3.252850
                                CHANNELS 3 Zrotation Xrotation Yrotation
                                JOINT LeftFinger01
                                {
                                    OFFSET   3.088130   0.000000   0.000000
                                    CHANNELS 3 Zrotation Xrotation Yrotation
                                    JOINT LeftFinger02
                                    {
                                        OFFSET   2.639460   0.000000   0.000000
                                        CHANNELS 3 Zrotation Xrotation Yrotation
                                        End Site
                                        {
                                            OFFSET   2.582190   0.000000   0.000000
                                        }
                                    }
                                }
                            }
                            JOINT LeftFinger1
                            {
                                OFFSET   8.364480   0.000000   3.252850
                                CHANNELS 3 Zrotation Xrotation Yrotation
                                JOINT LeftFinger11
                                {
                                    OFFSET   4.646930   0.000000   0.000000
                                    CHANNELS 3 Zrotation Xrotation Yrotation
                                    JOINT LeftFinger12
                                    {
                                        OFFSET   2.323470   0.000000   0.000000
                                        CHANNELS 3 Zrotation Xrotation Yrotation
                                        End Site
                                        {
                                            OFFSET   2.273050   0.000000   0.000000
                                        }
                                    }
                                }
                            }
                            JOINT LeftFinger2
                            {
                                OFFSET   8.364490   0.000016   1.078090
                                CHANNELS 3 Zrotation Xrotation Yrotation
                                JOINT LeftFinger21
                                {
                                    OFFSET   5.111610   0.000000   0.000000
                                    CHANNELS 3 Zrotation Xrotation Yrotation
                                    JOINT LeftFinger22
                                    {
                                        OFFSET   2.788150   0.000016   0.000000
                                        CHANNELS 3 Zrotation Xrotation Yrotation
                                        End Site
                                        {
                                            OFFSET   2.727660   0.000000   0.000000
                                        }
                                    }
                                }
                            }
                            JOINT LeftFinger3
                            {
                                OFFSET   7.899780   0.000015  -1.078090
                                CHANNELS 3 Zrotation Xrotation Yrotation
                                JOINT LeftFinger31
                                {
                                    OFFSET   4.646930   0.000000   0.000000
                                    CHANNELS 3 Zrotation Xrotation Yrotation
                                    JOINT LeftFinger32
                                    {
                                        OFFSET   2.323470   0.000000   0.000000
                                        CHANNELS 3 Zrotation Xrotation Yrotation
                                        End Site
                                        {
                                            OFFSET   2.273050   0.000000   0.000000
                                        }
                                    }
                                }
                            }
                            JOINT LeftFinger4
                            {
                                OFFSET   7.435090   0.000000  -3.252850
                                CHANNELS 3 Zrotation Xrotation Yrotation
                                JOINT LeftFinger41
                                {
                                    OFFSET   3.717550   0.000000   0.000000
                                    CHANNELS 3 Zrotation Xrotation Yrotation
                                    JOINT LeftFinger42
                                    {
                                        OFFSET   1.858770   0.000000   0.000000
                                        CHANNELS 3 Zrotation Xrotation Yrotation
                                        End Site
                                        {
                                            OFFSET   1.818440   0.000000   0.000000
                                        }
                                    }
                                }
                            }
                        }
                    }
                }
            }
            JOINT RightCollar
            {
                OFFSET  -3.911910  19.017000  -0.467062
                CHANNELS 3 Zrotation Xrotation Yrotation
                JOINT RightShoulder
                {
                    OFFSET -10.383700   0.000014   0.000000
                    CHANNELS 3 Zrotation Xrotation Yrotation
                    JOINT RightElbow
                    {
                        OFFSET -26.662100   0.001225   0.001091
                        CHANNELS 3 Zrotation Xrotation Yrotation
                        JOINT RightWrist
                        {
                            OFFSET -28.869000  -0.000020  -0.000085
                            CHANNELS 3 Zrotation Xrotation Yrotation
                            JOINT RightFinger0
                            {
                                OFFSET  -2.044650  -2.323490   3.252850
                                CHANNELS 3 Zrotation Xrotation Yrotation
                                JOINT RightFinger01
                                {
                                    OFFSET  -3.088130   0.000000   0.000000
                                    CHANNELS 3 Zrotation Xrotation Yrotation
                                    JOINT RightFinger02
                                    {
                                        OFFSET  -2.639460   0.000000   0.000000
                                        CHANNELS 3 Zrotation Xrotation Yrotation
                                        End Site
                                        {
                                            OFFSET  -2.582190   0.000000   0.000000
                                        }
                                    }
                                }
                            }
                            JOINT RightFinger1
                            {
                                OFFSET  -8.364480   0.000000   3.252850
                                CHANNELS 3 Zrotation Xrotation Yrotation
                                JOINT RightFinger11
                                {
                                    OFFSET  -4.646930   0.000000   0.000000
                                    CHANNELS 3 Zrotation Xrotation Yrotation
                                    JOINT RightFinger12
                                    {
                                        OFFSET  -2.323470   0.000000   0.000000
                                        CHANNELS 3 Zrotation Xrotation Yrotation
                                        End Site
                                        {
                                            OFFSET  -2.273050   0.000000   0.000000
                                        }
                                    }
                                }
                            }
                            JOINT RightFinger2
                            {
                                OFFSET  -8.364480   0.000000   1.078090
                                CHANNELS 3 Zrotation Xrotation Yrotation
                                JOINT RightFinger21
                                {
                                    OFFSET  -5.111620   0.000000   0.000000
                                    CHANNELS 3 Zrotation Xrotation Yrotation
                                    JOINT RightFinger22
                                    {
                                        OFFSET  -2.788160   0.000000   0.000000
                                        CHANNELS 3 Zrotation Xrotation Yrotation
                                        End Site
                                        {
                                            OFFSET  -2.727660   0.000000   0.000000
                                        }
                                    }
                                }
                            }
                            JOINT RightFinger3
                            {
                                OFFSET  -7.899780   0.000000  -1.078090
                                CHANNELS 3 Zrotation Xrotation Yrotation
                                JOINT RightFinger31
                                {
                                    OFFSET  -4.646930   0.000000   0.000000
                                    CHANNELS 3 Zrotation Xrotation Yrotation
                                    JOINT RightFinger32
                                    {
                                        OFFSET  -2.323470   0.000000   0.000000
                                        CHANNELS 3 Zrotation Xrotation Yrotation
                                        End Site
                                        {
                                            OFFSET  -2.273050   0.000000   0.000000
                                        }
                                    }
                                }
                            }
                            JOINT RightFinger4
                            {
                                OFFSET  -7.435090   0.000000  -3.252850
                                CHANNELS 3 Zrotation Xrotation Yrotation
                                JOINT RightFinger41
                                {
                                    OFFSET  -3.717550   0.000000   0.000000
                                    CHANNELS 3 Zrotation Xrotation Yrotation
                                    JOINT RightFinger42
                                    {
                                        OFFSET  -1.858760   0.000000   0.000000
                                        CHANNELS 3 Zrotation Xrotation Yrotation
                                        End Site
                                        {
                                            OFFSET  -1.818440   0.000000   0.000000
                                        }
                                    }
                                }
                            }
                        }
                    }
                }
            }
        }
    }
    JOINT LeftHip
    {
        OFFSET   9.783030   0.000000   0.000000
        CHANNELS 3 Zrotation Xrotation Yrotation
        JOINT LeftKnee
        {
            OFFSET   0.000063 -41.789100   0.000608
            CHANNELS 3 Zrotation Xrotation Yrotation
            JOINT LeftAnkle
            {
                OFFSET   0.000048 -41.133200  -0.000184
                CHANNELS 3 Zrotation Xrotation Yrotation
                JOINT LeftToe
                {
                    OFFSET   0.000000  -6.358960  14.674500
                    CHANNELS 3 Zrotation Xrotation Yrotation
                    End Site
                    {
                        OFFSET   0.000000   0.000000   3.913200
                    }
                }
            }
        }
    }
    JOINT RightHip
    {
        OFFSET  -9.783030   0.000000   0.000000
        CHANNELS 3 Zrotation Xrotation Yrotation
        JOINT RightKnee
        {
            OFFSET   0.000071 -41.789100   0.001239
            CHANNELS 3 Zrotation Xrotation Yrotation
            JOINT RightAnkle
            {
                OFFSET   0.000037 -41.133200  -0.000166
                CHANNELS 3 Zrotation Xrotation Yrotation
                JOINT RightToe
                {
                    OFFSET   0.000000  -6.358960  14.674500
                    CHANNELS 3 Zrotation Xrotation Yrotation
                    End Site
                    {
                        OFFSET   0.000000   0.000000   3.913200
                    }
                }
            }
        }
    }
}
MOTION
Frames: 6
Frame Time:   0.016667
  0.304218  89.612000  -0.903172  -3.764320  -8.214670  -6.952130   0.983223   5.943770   1.043780   1.872010  11.903800   2.000570   1.009000  -0.914127   0.008379   1.653730  -1.852240   3.151810  -6.846040  -2.500970   1.588380 -72.189800  21.126500  -3.688080  -0.750805  -1.395100 -19.421100  18.474900 -14.428800   9.070740  39.609000  35.911700 -62.311900 -34.633200   0.005577   0.003916 -12.316900   0.006320   0.005701 -33.415500   5.844710  -8.777330 -27.695600  -0.000240  -0.001481 -19.386900   0.001212   0.012605 -28.644000  -2.010170   3.675280 -39.125000   0.000730   0.000237 -26.047700   0.000379   0.000714 -28.723900  -2.015700   3.672250 -41.818800  -0.013879  -0.003601 -27.851300  -0.004302  -0.006555 -34.153900  -2.353740   3.465480 -51.338100  -0.005555  -0.003502 -34.191200   0.003440  -0.002556  12.842900  -0.052993   9.654890  64.661600  13.040300  -5.544030  -3.507600  -4.310290  17.123500 -11.764900  -8.640140   2.430170 -40.170400  29.832700  65.719900  25.235900  -0.007723  -0.006570   7.617910  -0.011408  -0.003655  38.461200   7.588640   9.440260  31.979900   0.005467   0.000000  22.385900   0.004645   0.006347  31.676500   1.432370   2.320100  47.557500   0.001128   0.011056  31.673300   0.000000   0.005911  32.642100   1.014970   1.584010  48.984300   0.000713   0.003485  32.623500   0.004338   0.002521  45.262000  -2.752430  -2.723440  67.987900   0.001145  -0.002748  45.281600   0.004662  -0.008435   2.741020   9.748220   3.989480   0.853287   0.072190   7.214230  -1.882100  -2.579480   2.886600   0.000000   0.000000   0.000000   3.861520   6.375960  -0.922772  -2.636970   4.859240  -5.907270   0.889265  -3.392340   1.411350   0.000000   0.000000   0.000000
  0.319030  89.612000  -0.922756  -3.760450  -8.225640  -6.916390   0.981029   5.954040   1.052680   1.866360  11.924400   2.018620   1.009280  -0.909527   0.008385   1.654020  -1.842990   3.151730  -6.834810  -2.500890   1.588310 -72.179200  21.185600  -3.726830  -0.749729  -1.434250 -19.418700  18.478000 -14.427000   9.083370  39.609000  35.912100 -62.311800 -34.633200   0.005577   0.003915 -12.316500   0.006320   0.005855 -33.410700   5.844710  -8.777330 -27.695000  -0.000241  -0.001483 -19.386500   0.001211   0.012605 -28.644000  -2.010170   3.675280 -39.117800   0.000731   0.000238 -26.047700   0.000380   0.000712 -28.723900  -2.015700   3.672250 -41.810400  -0.013881  -0.003603 -27.845700  -0.004301  -0.006554 -34.150000  -2.353740   3.465480 -51.332200  -0.005553  -0.003502 -34.187300   0.003440  -0.002556  12.844600  -0.061339   9.643210  64.666100  13.056800  -5.556920  -3.507290  -4.320400  17.129700 -11.778500  -8.643630   2.447500 -40.173300  29.842000  65.720900  25.242500  -0.007722  -0.006570   7.621210  -0.011407  -0.003650  38.459100   7.594870   9.448030  31.979900   0.005467  -0.000000  22.385900   0.004641   0.006345  31.675900   1.439020   2.330770  47.557500   0.001126   0.011056  31.673300   0.000000   0.005911  32.647500   1.025420   1.599980  48.992700   0.000706   0.003488  32.629100   0.004338   0.002517  45.262300  -2.752480  -2.723490  67.987800   0.001144  -0.002750  45.281900   0.004658  -0.008436   2.735240   9.744090   3.981570   0.854090   0.064738   7.195690  -1.883210  -2.564630   2.886490  -0.000000   0.000000   0.000000   3.855410   6.371330  -0.922667  -2.642930   4.870030  -5.910310   0.898036  -3.387240   1.380690   0.000000   0.000000   0.000000
  0.344125  89.612000  -0.955610  -3.754770  -8.243350  -6.862690   0.977670   5.970640   1.066960   1.857990  11.957800   2.047560   1.009570  -0.900605   0.008391   1.653830  -1.824950   3.151630  -6.819200  -2.500800   1.588170 -72.161800  21.273200  -3.789300  -0.749616  -1.493500 -19.411200  18.483000 -14.422800   9.104820  39.609600  35.913300 -62.312900 -34.633200   0.005572   0.003909 -12.316100   0.006320   0.006064 -33.405800   5.844710  -8.777330 -27.694400  -0.000242  -0.001485 -19.386000   0.001208   0.012606 -28.644000  -2.010170   3.675280 -39.110600   0.000732   0.000240 -26.047700   0.000380   0.000705 -28.723900  -2.015700   3.672250 -41.798600  -0.013884  -0.003604 -27.837900  -0.004301  -0.006552 -34.144200  -2.353740   3.465480 -51.323200  -0.005551  -0.003503 -34.181200   0.003441  -0.002558  12.846200  -0.069686   9.625840  64.672200  13.089100  -5.570170  -3.506630  -4.338250  17.140000 -11.799300  -8.654950   2.474580 -40.175100  29.859300  65.725500  25.258900  -0.007713  -0.006569   7.629430  -0.011403  -0.003641  38.457000   7.601110   9.455800  31.979900   0.005465   0.000000  22.385900   0.004634   0.006339  31.675400   1.445670   2.341440  47.557500   0.001120   0.011055  31.673300   0.000000   0.005906  32.657100   1.040050   1.622200  49.007700   0.000691   0.003491  32.639100   0.004338   0.002507  45.262800  -2.752610  -2.723590  67.987700   0.001140  -0.002752  45.282400   0.004647  -0.008439   2.727340   9.735360   3.970570   0.854589   0.057287   7.162420  -1.884770  -2.540930   2.886360  -0.000000   0.000000   0.000000   3.847080   6.362620  -0.922555  -2.653550   4.887090  -5.913400   0.913101  -3.377120   1.333120   0.000000   0.000000   0.000000
  0.365700  89.612000  -0.982399  -3.756880  -8.255480  -6.832400   0.975687   5.982410   1.077880   1.852580  11.981500   2.069640   1.007680  -0.891032   0.008389   1.651440  -1.805370   3.158920  -6.814140  -2.500810   1.587980 -72.149900  21.320000  -3.836860  -0.752449  -1.527510 -19.396800  18.486300 -14.416100   9.123320  39.610700  35.915000 -62.317500 -34.637300   0.005555   0.003884 -12.318400   0.006332   0.006138 -33.408100   5.841470  -8.771790 -27.698000  -0.000242  -0.001483 -19.388600   0.001203   0.012612 -28.643300  -2.015930   3.685770 -39.118200   0.000732   0.000239 -26.052800   0.000382   0.000694 -28.723200  -2.021440   3.682740 -41.793200  -0.013884  -0.003603 -27.834300  -0.004299  -0.006549 -34.139600  -2.360280   3.475500 -51.317300  -0.005553  -0.003504 -34.177200   0.003441  -0.002560  12.845500  -0.069480   9.615390  64.672500  13.127900  -5.570830  -3.505880  -4.354950  17.147000 -11.814300  -8.682780   2.491420 -40.167600  29.878800  65.734900  25.291700  -0.007685  -0.006556   7.645860  -0.011397  -0.003634  38.465200   7.595660   9.446000  31.986700   0.005459  -0.000000  22.390600   0.004629   0.006332  31.680900   1.444330   2.338620  47.565700   0.001110   0.011061  31.678700   0.000000   0.005895  32.667100   1.043190   1.626800  49.023000   0.000668   0.003491  32.649300   0.004339   0.002496  45.263000  -2.752770  -2.723730  67.987800   0.001132  -0.002752  45.282600   0.004628  -0.008443   2.724620   9.724500   3.967370   0.853441   0.058009   7.131570  -1.884260  -2.523420   2.891560  -0.000000   0.000000   0.000000   3.844360   6.352870  -0.922898  -2.662940   4.898600  -5.911860   0.926483  -3.365070   1.296150   0.000000   0.000000   0.000000
  0.386482  89.612100  -1.009330  -3.763020  -8.268620  -6.808400   0.973926   5.994430   1.086820   1.847980  12.005600   2.087700   1.003910  -0.879546   0.008387   1.647310  -1.781930   3.174200  -6.811010  -2.500810   1.587860 -72.137200  21.355500  -3.877590  -0.758506  -1.555960 -19.380000  18.487200 -14.409700   9.141250  39.606000  35.914000 -62.325800 -34.647600   0.005528   0.003854 -12.323800   0.006348   0.006156 -33.416300   5.835990  -8.761040 -27.706700  -0.000242  -0.001480 -19.394700   0.001194   0.012622 -28.642000  -2.025660   3.703460 -39.136600   0.000733   0.000237 -26.065000   0.000383   0.000680 -28.722000  -2.031140   3.700460 -41.791300  -0.013884  -0.003602 -27.833000  -0.004298  -0.006545 -34.136000  -2.371370   3.492390 -51.312900  -0.005554  -0.003506 -34.174200   0.003442  -0.002563  12.843900  -0.068066   9.609480  64.668400  13.167200  -5.570560  -3.504760  -4.372100  17.155900 -11.823500  -8.702730   2.508200 -40.162200  29.896800  65.748900  25.314700  -0.007644  -0.006541   7.657360  -0.011391  -0.003628  38.476100   7.590220   9.436210  31.993800   0.005446   0.000000  22.395600   0.004625   0.006322  31.689300   1.442980   2.335800  47.578100   0.001097   0.011069  31.687000   0.000000   0.005879  32.676500   1.048420   1.634030  49.037200   0.000638   0.003490  32.658800   0.004340   0.002482  45.263000  -2.752940  -2.723870  67.987900   0.001122  -0.002752  45.282600   0.004603  -0.008449   2.723990   9.711460   3.964790   0.852074   0.063036   7.096470  -1.883160  -2.508640   2.906940   0.000000   0.000000   0.000000   3.844040   6.343350  -0.925410  -2.674050   4.909380  -5.910310   0.939592  -3.352220   1.276080   0.000000   0.000000   0.000000
  0.404266  89.612100  -1.036240  -3.767960  -8.285550  -6.786860   0.972060   6.007940   1.091440   1.843750  12.032600   2.097040   0.999197  -0.865748   0.008401   1.641760  -1.754090   3.194880  -6.806010  -2.501100   1.587880 -72.124500  21.385000  -3.904690  -0.766727  -1.582920 -19.365400  18.480000 -14.407800   9.160210  39.588200  35.905700 -62.337300 -34.665000   0.005497   0.003848 -12.332500   0.006353   0.004813 -33.437000   5.831090  -8.747610 -27.723300  -0.000247  -0.001479 -19.406300   0.001176   0.012631 -28.640700  -2.035810   3.721800 -39.167200   0.000734   0.000236 -26.085400   0.000383   0.000661 -28.720700  -2.041220   3.718850 -41.797700  -0.013883  -0.003604 -27.837300  -0.004296  -0.006541 -34.134300  -2.383040   3.509830 -51.311700  -0.005553  -0.003505 -34.173400   0.003442  -0.002566  12.841400  -0.063441   9.608330  64.659700  13.196500  -5.568320  -3.501340  -4.389380  17.169200 -11.823400  -8.697500   2.527590 -40.172200  29.903400  65.772400  25.294600  -0.007604  -0.006539   7.647280  -0.011383  -0.003625  38.476100   7.605230   9.454830  31.994200   0.005424   0.000000  22.396000   0.004619   0.006311  31.694500   1.456600   2.357640  47.586800   0.001086   0.011074  31.692800   0.000000   0.005860  32.682000   1.073980   1.673170  49.046000   0.000600   0.003487  32.665100   0.004340   0.002463  45.259200  -2.753060  -2.724010  67.984000   0.001110  -0.002753  45.278900   0.004573  -0.008459   2.725170   9.692920   3.959190   0.849790   0.085599   7.053010  -1.884570  -2.501770   2.934410   0.000000   0.000000  -0.000000   3.846720   6.337500  -0.933178  -2.687760   4.918590  -5.922280   0.948136  -3.340310   1.276730  -0.000000   0.000000   0.000000
